<svg width="258" height="205" viewBox="0 0 258 205" fill="none" xmlns="http://www.w3.org/2000/svg">
<path fill-rule="evenodd" clip-rule="evenodd" d="M71.7966 26.4503L2.43939 52.7441L0.861756 59.4052C-2.96546 74.8309 6.41267 117.485 19.9394 145.065C39.1923 184.242 80.123 209.572 115.328 203.846C125.027 202.298 243.466 145.59 243.466 142.494C243.466 141.442 237.214 136.066 229.589 130.194C213.637 118.011 192.31 98.4077 192.31 96.012C192.485 94.4636 220.035 76.2624 237.214 66.3584C254.393 56.4544 256.292 55.1105 257.49 49.2674C259.944 35.7407 248.141 20.6364 234.964 20.6364C232.715 20.6364 226.989 23.5579 222.314 27.0638C206.859 38.7499 169.727 62.2683 167.857 61.2165C162.832 58.295 151.555 28.2908 146.53 4.50952C145.828 1.90935 144.455 -0.164944 143.228 0.0103486C142.001 0.185641 109.952 11.901 71.7966 26.4503ZM146.88 19.3509C149.599 29.8138 153.226 40.0195 157.719 49.8518L164.994 64.4594L160.056 68.5788C156.128 71.4642 152.009 74.0801 147.727 76.4085C141.68 79.6806 140.102 79.8559 137.853 77.9569C133.704 74.4803 134.347 73.4578 142.206 69.7182C146.179 67.9945 148.604 66.2416 147.581 65.891C145.072 66.0167 142.628 66.7377 140.453 67.9945C138.309 69.3193 135.973 70.3048 133.529 70.916C131.951 70.916 121.2 52.0137 121.2 49.5888C123.554 47.9029 126.198 46.6649 129 45.9369C131.931 45.0822 134.616 43.5397 136.83 41.4377C136.83 40.5613 133.178 41.4377 128.679 43.3367C122.252 46.1122 120.353 46.2583 119.126 44.5346C117.898 42.8109 117.752 42.9861 117.752 45.0604C117.752 47.1347 113.896 49.5304 107.001 52.4811C93.825 58.0028 93.825 58.0028 91.7215 52.9778C90.1731 49.3551 89.9978 49.5304 90.5237 54.0296C91.0496 58.5287 89.9978 59.4052 76.997 64.7808C63.9962 70.1564 62.9444 70.3317 61.0454 67.7023C59.1464 65.073 58.7958 65.2775 58.7958 68.5496C58.7958 71.179 56.1956 73.2533 47.3434 76.876C35.891 81.7549 33.992 81.5796 32.093 75.1523C31.5671 73.2533 31.3918 74.2758 31.7424 77.4018C32.093 82.6022 31.5671 83.2449 24.4678 86.4294C15.0896 90.578 15.7032 92.8275 24.9644 88.8543C28.6164 87.4519 32.093 86.78 32.5896 87.6272C35.0145 90.169 43.7791 110.62 43.0195 111.262C42.6689 111.409 38.4911 113.512 33.8167 115.586C29.1422 117.661 25.8409 119.91 26.2499 120.436C29.7676 119.835 33.1628 118.661 36.3 116.959L45.5028 112.636L52.7774 122.51C55.8675 126.825 59.2241 130.943 62.8275 134.839C67.502 138.462 66.4795 140.04 55.9035 144.539C50.5279 146.964 46.5254 149.213 47.1389 149.739C47.7524 150.265 52.5437 148.6 58.3868 146.116L68.7875 141.413L76.7633 148.015C81.1456 151.521 84.6806 153.742 84.6806 152.69C84.6806 151.638 81.9052 148.892 78.6038 146.438C76.2513 144.872 74.2023 142.892 72.5563 140.595C72.5563 139.893 78.3993 136.242 85.7324 132.794L99.2883 126.162L106.388 133.086C108.962 136.039 112.088 138.461 115.59 140.215C116.788 140.215 114.013 136.738 109.514 132.59L101.45 124.935L108.725 121.313C117.752 116.784 119.476 116.784 118.249 121.488C117.227 125.111 117.577 125.111 132.302 124.409L147.406 123.358L167.857 110.357L188.483 97.3559L198.212 107.231C206.21 114.937 214.596 122.231 223.337 129.084C228.809 133.143 234.02 137.544 238.938 142.26C239.113 143.136 155.878 183.541 138.378 191.166C133.763 192.867 129 194.138 124.151 194.964C117.051 196.016 115.649 195.666 111.5 191.517L107.001 186.989L98.4995 190.465C87.0471 195.49 82.8985 195.14 69.0212 187.865C53.5955 179.714 34.3426 159.614 25.1982 142.085C20.4656 132.369 16.5565 122.274 13.512 111.905C8.1656 93.5579 3.46192 57.6815 6.06209 55.4027C6.93855 54.5554 36.0663 43.2783 70.9202 30.1022C105.774 16.926 135.428 5.64892 136.83 4.77246C141.855 1.997 142.878 3.39933 146.88 19.3509ZM247.089 29.7516C257.489 39.2758 257.343 55.1105 246.592 55.1105C240.02 54.315 233.907 51.3307 229.238 46.6381C225.586 41.7299 224.914 32.7023 227.836 28.2032C231.838 22.1264 239.522 22.6523 247.089 29.7516ZM231.488 53.679C238.266 60.603 237.331 62.7065 229.414 57.6815C226.508 55.5382 224.146 52.7432 222.518 49.5212C220.889 46.2992 220.039 42.74 220.035 39.1297C220.035 29.9269 222.489 29.7516 223.863 38.9544C224.503 44.6344 227.219 49.8779 231.488 53.679ZM224.564 57.1556C229.414 62.3559 228.537 63.9043 223.161 59.7558C219.188 56.8342 214.835 46.229 215.01 40.1523C215.186 36.3543 215.712 37.2307 217.435 43.8042C218.965 48.6572 221.382 53.1843 224.564 57.1556ZM212.41 44.3301C214.338 53.8543 217.114 58.9377 222.139 62.8818L227.339 66.7967L210.307 77.6063C200.782 83.6831 184.656 93.9085 174.08 100.686C151.35 115.06 148.049 116.463 143.55 114.184C135.749 109.86 132.097 92.5354 138.174 87.1598C141.826 83.6831 208.291 39.977 209.956 39.8017C210.686 39.6264 211.738 41.7299 212.41 44.3301ZM124.151 61.4795L129.994 72.7566L120.469 77.0805C116.883 78.7524 113.194 80.1966 109.426 81.4043C108.199 81.4043 94.497 60.4277 95.5487 59.9018C96.6005 59.376 116.876 50.5237 117.752 50.3484C120.35 53.7712 122.501 57.5118 124.151 61.4795ZM105.599 82.6314C105.599 83.3326 99.0254 86.8092 90.9911 90.2566L76.2374 96.684L72.9945 92.0095C67.9694 84.881 63.6456 76.0579 64.2299 73.9544C64.6681 72.9319 71.2708 69.7182 78.8375 66.7967L92.7148 60.9536L99.2883 71.2082C101.701 74.8365 103.812 78.6571 105.599 82.6314ZM66.5963 85.7574C68.9088 89.6229 70.8646 93.6909 72.4394 97.911C71.3876 98.7583 48.1614 108.984 46.9344 108.984C45.7073 108.984 36.8843 91.1331 36.0078 86.8092C35.6572 85.0563 54.0629 75.3568 59.3801 74.4803C59.6431 74.305 63.1197 79.5053 66.5963 85.7574ZM135.603 78.4828C138.203 82.4561 138.203 82.8067 134.376 85.4068C131.689 87.3378 129.782 90.1672 129 93.3826C128.328 96.1581 127.101 98.583 126.079 98.583C122.716 96.7454 119.74 94.2752 117.314 91.3083L110.273 84.0337L120.528 79.3301C133.178 73.4578 132.477 73.4578 135.603 78.4828ZM123.917 106.062C122.368 112.11 120.995 113.337 109.893 118.362L99.4636 123.036L88.5663 111.584C82.4895 105.186 78.1364 99.2842 79.0128 98.583C83.8834 95.6857 88.9841 93.194 94.2633 91.1331L108.053 85.0563L116.555 93.5579C123.128 100.336 124.852 103.111 123.975 106.062H123.917ZM140.219 114.827C146.062 119.676 145.419 121.079 136.772 121.079C126.517 121.079 123.917 115.236 128.445 102.527L130.695 96.684L132.944 103.608C134.462 107.873 136.942 111.732 140.19 114.885L140.219 114.827ZM86.2875 112.752L97.0387 124.439L69.7224 138.287L63.6456 131.888C56.1956 124.088 47.694 112.636 48.5704 111.759C56.6004 107.37 65.0094 103.713 73.6956 100.833C78.3721 104.31 82.6187 108.331 86.3459 112.811L86.2875 112.752ZM110.741 194.76C114.743 199.113 114.743 199.113 111.091 199.113C108.179 198.883 105.316 198.233 102.59 197.185C97.9152 195.461 97.9152 195.286 101.041 192.861C105.599 189.501 106.125 189.793 110.799 194.818L110.741 194.76Z" fill="#10090A"/>
<path fill-rule="evenodd" clip-rule="evenodd" d="M127.802 13.7999C124.325 15.6988 123.624 21.4251 126.399 23.1488C131.6 26.2748 138.728 18.8249 134.901 14.3842C132.652 11.5503 131.775 11.2873 127.802 13.7999ZM131.6 18.8249C131.604 19.0523 131.562 19.2783 131.477 19.4892C131.391 19.7001 131.265 19.8917 131.104 20.0525C130.943 20.2134 130.751 20.3402 130.54 20.4254C130.329 20.5107 130.104 20.5526 129.876 20.5486C129.428 20.5209 129.005 20.3305 128.688 20.013C128.371 19.6955 128.18 19.273 128.152 18.8249C128.148 18.5974 128.19 18.3715 128.276 18.1606C128.361 17.9497 128.488 17.7581 128.648 17.5972C128.809 17.4364 129.001 17.3096 129.212 17.2243C129.423 17.1391 129.649 17.0972 129.876 17.1012C130.107 17.0837 130.339 17.1163 130.556 17.1967C130.773 17.2771 130.97 17.4035 131.134 17.5672C131.297 17.7309 131.424 17.928 131.504 18.1451C131.585 18.3622 131.617 18.5941 131.6 18.8249Z" fill="#10090A"/>
<path fill-rule="evenodd" clip-rule="evenodd" d="M103.172 24.3759C100.747 27.6772 100.747 28.5245 102.821 30.628C103.669 31.2982 104.665 31.755 105.727 31.9599C106.788 32.1648 107.883 32.1119 108.919 31.8055C109.956 31.4992 110.903 30.9483 111.683 30.1994C112.462 29.4505 113.05 28.5254 113.397 27.5019C115.822 20.052 107.671 17.7732 103.172 24.3759ZM109.015 27.5019C109.015 28.3784 107.788 29.2256 106.415 29.2256C105.041 29.2256 103.814 28.3784 103.814 27.5019C103.814 26.6255 105.012 25.749 106.415 25.749C107.817 25.749 109.073 26.4502 109.073 27.5019H109.015Z" fill="#10090A"/>
<path fill-rule="evenodd" clip-rule="evenodd" d="M74.3945 35.4776C72.4955 37.5519 72.6708 38.6037 75.0956 41.0285C78.5431 44.4759 83.5681 42.0511 84.4446 36.3541C84.9704 33.4325 84.094 32.7021 80.7926 32.7021C79.593 32.7023 78.4062 32.9487 77.3056 33.4261C76.2051 33.9035 75.2142 34.6017 74.3945 35.4776ZM81.3185 37.9025C81.3185 38.7789 80.1207 39.6262 78.7184 39.6262C77.316 39.6262 76.1182 38.7789 76.1182 37.9025C76.1182 37.026 77.3452 36.1788 78.7184 36.1788C80.0915 36.1788 81.3185 36.8507 81.3185 37.9025Z" fill="#10090A"/>
<path fill-rule="evenodd" clip-rule="evenodd" d="M45.7944 45.8783C42.6683 49.1796 43.0189 51.7214 47.1675 54.2047C50.4688 56.279 54.6174 54.38 57.7435 49.5302C61.3077 43.804 50.9947 40.678 45.7944 45.8783ZM52.7184 48.3032C53.2443 49.3549 52.5431 50.5528 50.9947 51.0786C47.6934 52.481 45.7944 51.0786 47.5181 48.4785C47.7467 47.9912 48.1055 47.5765 48.5548 47.2802C49.0042 46.9839 49.5267 46.8175 50.0646 46.7994C50.6026 46.7813 51.1351 46.9121 51.6033 47.1775C52.0716 47.4428 52.4575 47.8324 52.7184 48.3032Z" fill="#10090A"/>
<path fill-rule="evenodd" clip-rule="evenodd" d="M15.2622 56.8049C11.7856 59.7265 11.435 60.7782 13.0126 63.3784C13.7957 64.438 14.8075 65.3074 15.9729 65.9221C17.1383 66.5367 18.4273 66.8806 19.744 66.9283C21.0606 66.9761 22.3711 66.7263 23.578 66.1977C24.7848 65.6691 25.857 64.8752 26.7146 63.875C33.2881 56.6296 23.3257 50.2023 15.2622 56.8049ZM22.8874 59.4051C24.1145 62.5311 22.7121 63.875 18.5636 63.875C17.8517 63.9428 17.138 63.7667 16.5393 63.3756C15.9406 62.9846 15.4925 62.4018 15.2684 61.7228C15.0443 61.0437 15.0575 60.3087 15.3059 59.6381C15.5542 58.9676 16.023 58.4012 16.6354 58.032C17.0748 57.5571 17.6307 57.2053 18.2481 57.0116C18.8654 56.818 19.5227 56.7891 20.1547 56.9279C20.7866 57.0667 21.3713 57.3683 21.8507 57.8029C22.3301 58.2374 22.6875 58.7898 22.8874 59.4051Z" fill="#10090A"/>
<path fill-rule="evenodd" clip-rule="evenodd" d="M155.03 143.838C123.799 159.789 98.4987 173.491 99.2875 174.368C100.076 175.244 171.508 138.813 171.508 137.439C171.508 136.066 168.382 137.089 155.03 143.838Z" fill="#10090A"/>
<path fill-rule="evenodd" clip-rule="evenodd" d="M149.301 163.967C130.924 174.017 116.17 182.519 116.813 183.045C117.456 183.571 129.989 177.202 145.094 169.167C160.198 161.133 175.77 152.69 179.918 150.616C182.529 149.423 184.982 147.912 187.222 146.117C187.105 144.013 179.48 147.49 149.301 163.967Z" fill="#10090A"/>
<path fill-rule="evenodd" clip-rule="evenodd" d="M86.522 177.318C86.522 179.918 90.6998 182.168 92.365 180.62C92.9388 180.181 93.3516 179.566 93.539 178.868C93.7264 178.171 93.678 177.432 93.4013 176.765C93.1245 176.098 92.635 175.541 92.009 175.182C91.383 174.822 90.6556 174.68 89.9402 174.776C88.0996 174.893 86.522 175.916 86.522 177.318Z" fill="#10090A"/>
<path fill-rule="evenodd" clip-rule="evenodd" d="M195.696 59.23C189.444 63.2325 174.194 73.1073 161.865 81.0831C149.536 89.0589 140.187 96.0121 141.326 96.3335C143.225 97.0347 209.632 54.5555 209.632 52.5105C209.632 50.4654 206.535 52.1891 195.696 59.23Z" fill="#10090A"/>
<path fill-rule="evenodd" clip-rule="evenodd" d="M182.756 84.7058C164.73 96.1582 149.129 105.712 148.077 106.062C147.874 106.13 147.692 106.248 147.548 106.405C147.404 106.562 147.302 106.754 147.253 106.961C147.203 107.169 147.207 107.386 147.264 107.591C147.322 107.797 147.43 107.985 147.58 108.136C148.953 109.51 218.311 67.3811 218.311 65.3068C218.311 62.7066 215.71 64.255 182.756 84.7058Z" fill="#10090A"/>
</svg>
